<!--
  Icones Lucide v1.9.0 - licenca ISC.
  Derivado de assets/vendor/lucide.min.js vendorizado localmente.
  Copyright (c) Lucide Contributors.
-->
<svg xmlns="http://www.w3.org/2000/svg" style="display: none">
  <symbol id="database" viewBox="0 0 24 24">
    <ellipse cx="12" cy="5" rx="9" ry="3"></ellipse>
    <path d="M3 5V19A9 3 0 0 0 21 19V5"></path>
    <path d="M3 12A9 3 0 0 0 21 12"></path>
  </symbol>
  <symbol id="sliders-horizontal" viewBox="0 0 24 24">
    <path d="M10 5H3"></path>
    <path d="M12 19H3"></path>
    <path d="M14 3v4"></path>
    <path d="M16 17v4"></path>
    <path d="M21 12h-9"></path>
    <path d="M21 19h-5"></path>
    <path d="M21 5h-7"></path>
    <path d="M8 10v4"></path>
    <path d="M8 12H3"></path>
  </symbol>
  <symbol id="rotate-ccw" viewBox="0 0 24 24">
    <path d="M3 12a9 9 0 1 0 9-9 9.75 9.75 0 0 0-6.74 2.74L3 8"></path>
    <path d="M3 3v5h5"></path>
  </symbol>
  <symbol id="search" viewBox="0 0 24 24">
    <path d="m21 21-4.34-4.34"></path>
    <circle cx="11" cy="11" r="8"></circle>
  </symbol>
  <symbol id="x" viewBox="0 0 24 24">
    <path d="M18 6 6 18"></path>
    <path d="m6 6 12 12"></path>
  </symbol>
  <symbol id="copy" viewBox="0 0 24 24">
    <rect width="14" height="14" x="8" y="8" rx="2" ry="2"></rect>
    <path d="M4 16c-1.1 0-2-.9-2-2V4c0-1.1.9-2 2-2h10c1.1 0 2 .9 2 2"></path>
  </symbol>
  <symbol id="file-down" viewBox="0 0 24 24">
    <path d="M6 22a2 2 0 0 1-2-2V4a2 2 0 0 1 2-2h8a2.4 2.4 0 0 1 1.704.706l3.588 3.588A2.4 2.4 0 0 1 20 8v12a2 2 0 0 1-2 2z"></path>
    <path d="M14 2v5a1 1 0 0 0 1 1h5"></path>
    <path d="M12 18v-6"></path>
    <path d="m9 15 3 3 3-3"></path>
  </symbol>
  <symbol id="printer" viewBox="0 0 24 24">
    <path d="M6 18H4a2 2 0 0 1-2-2v-5a2 2 0 0 1 2-2h16a2 2 0 0 1 2 2v5a2 2 0 0 1-2 2h-2"></path>
    <path d="M6 9V3a1 1 0 0 1 1-1h10a1 1 0 0 1 1 1v6"></path>
    <rect x="6" y="14" width="12" height="8" rx="1"></rect>
  </symbol>
  <symbol id="activity" viewBox="0 0 24 24">
    <path d="M22 12h-2.48a2 2 0 0 0-1.93 1.46l-2.35 8.36a.25.25 0 0 1-.48 0L9.24 2.18a.25.25 0 0 0-.48 0l-2.35 8.36A2 2 0 0 1 4.49 12H2"></path>
  </symbol>
  <symbol id="bar-chart-3" viewBox="0 0 24 24">
    <path d="M3 3v16a2 2 0 0 0 2 2h16"></path>
    <path d="M18 17V9"></path>
    <path d="M13 17V5"></path>
    <path d="M8 17v-3"></path>
  </symbol>
  <symbol id="layers-3" viewBox="0 0 24 24">
    <path d="M12.83 2.18a2 2 0 0 0-1.66 0L2.6 6.08a1 1 0 0 0 0 1.83l8.58 3.91a2 2 0 0 0 1.66 0l8.58-3.9a1 1 0 0 0 0-1.83z"></path>
    <path d="M2 12a1 1 0 0 0 .58.91l8.6 3.91a2 2 0 0 0 1.65 0l8.58-3.9A1 1 0 0 0 22 12"></path>
    <path d="M2 17a1 1 0 0 0 .58.91l8.6 3.91a2 2 0 0 0 1.65 0l8.58-3.9A1 1 0 0 0 22 17"></path>
  </symbol>
  <symbol id="calendar-days" viewBox="0 0 24 24">
    <path d="M8 2v4"></path>
    <path d="M16 2v4"></path>
    <rect width="18" height="18" x="3" y="4" rx="2"></rect>
    <path d="M3 10h18"></path>
    <path d="M8 14h.01"></path>
    <path d="M12 14h.01"></path>
    <path d="M16 14h.01"></path>
    <path d="M8 18h.01"></path>
    <path d="M12 18h.01"></path>
    <path d="M16 18h.01"></path>
  </symbol>
  <symbol id="building-2" viewBox="0 0 24 24">
    <path d="M10 12h4"></path>
    <path d="M10 8h4"></path>
    <path d="M14 21v-3a2 2 0 0 0-4 0v3"></path>
    <path d="M6 10H4a2 2 0 0 0-2 2v7a2 2 0 0 0 2 2h16a2 2 0 0 0 2-2V9a2 2 0 0 0-2-2h-2"></path>
    <path d="M6 21V5a2 2 0 0 1 2-2h8a2 2 0 0 1 2 2v16"></path>
  </symbol>
  <symbol id="list-ordered" viewBox="0 0 24 24">
    <path d="M11 5h10"></path>
    <path d="M11 12h10"></path>
    <path d="M11 19h10"></path>
    <path d="M4 4h1v5"></path>
    <path d="M4 9h2"></path>
    <path d="M6.5 20H3.4c0-1 2.6-1.925 2.6-3.5a1.5 1.5 0 0 0-2.6-1.02"></path>
  </symbol>
  <symbol id="timer" viewBox="0 0 24 24">
    <line x1="10" x2="14" y1="2" y2="2"></line>
    <line x1="12" x2="15" y1="14" y2="11"></line>
    <circle cx="12" cy="14" r="8"></circle>
  </symbol>
  <symbol id="clipboard-check" viewBox="0 0 24 24">
    <rect width="8" height="4" x="8" y="2" rx="1" ry="1"></rect>
    <path d="M16 4h2a2 2 0 0 1 2 2v14a2 2 0 0 1-2 2H6a2 2 0 0 1-2-2V6a2 2 0 0 1 2-2h2"></path>
    <path d="m9 14 2 2 4-4"></path>
  </symbol>
  <symbol id="arrow-up-narrow-wide" viewBox="0 0 24 24">
    <path d="m3 8 4-4 4 4"></path>
    <path d="M7 4v16"></path>
    <path d="M11 12h4"></path>
    <path d="M11 16h7"></path>
    <path d="M11 20h10"></path>
  </symbol>
  <symbol id="rows-3" viewBox="0 0 24 24">
    <rect width="18" height="18" x="3" y="3" rx="2"></rect>
    <path d="M21 9H3"></path>
    <path d="M21 15H3"></path>
  </symbol>
  <symbol id="chevron-down" viewBox="0 0 24 24">
    <path d="m6 9 6 6 6-6"></path>
  </symbol>
  <symbol id="arrow-up" viewBox="0 0 24 24">
    <path d="m5 12 7-7 7 7"></path>
    <path d="M12 19V5"></path>
  </symbol>
  <symbol id="chevrons-down" viewBox="0 0 24 24">
    <path d="m7 6 5 5 5-5"></path>
    <path d="m7 13 5 5 5-5"></path>
  </symbol>
  <symbol id="list" viewBox="0 0 24 24">
    <path d="M3 5h.01"></path>
    <path d="M3 12h.01"></path>
    <path d="M3 19h.01"></path>
    <path d="M8 5h13"></path>
    <path d="M8 12h13"></path>
    <path d="M8 19h13"></path>
  </symbol>
  <symbol id="sun-moon" viewBox="0 0 24 24">
    <path d="M12 2v2"></path>
    <path d="M14.837 16.385a6 6 0 1 1-7.223-7.222c.624-.147.97.66.715 1.248a4 4 0 0 0 5.26 5.259c.589-.255 1.396.09 1.248.715"></path>
    <path d="M16 12a4 4 0 0 0-4-4"></path>
    <path d="m19 5-1.256 1.256"></path>
    <path d="M20 12h2"></path>
  </symbol>
  <symbol id="sun" viewBox="0 0 24 24">
    <circle cx="12" cy="12" r="4"></circle>
    <path d="M12 2v2"></path>
    <path d="M12 20v2"></path>
    <path d="m4.93 4.93 1.41 1.41"></path>
    <path d="m17.66 17.66 1.41 1.41"></path>
    <path d="M2 12h2"></path>
    <path d="M20 12h2"></path>
    <path d="m6.34 17.66-1.41 1.41"></path>
    <path d="m19.07 4.93-1.41 1.41"></path>
  </symbol>
  <symbol id="moon" viewBox="0 0 24 24">
    <path d="M20.985 12.486a9 9 0 1 1-9.473-9.472c.405-.022.617.46.402.803a6 6 0 0 0 8.268 8.268c.344-.215.825-.004.803.401"></path>
  </symbol>
  <symbol id="contrast" viewBox="0 0 24 24">
    <circle cx="12" cy="12" r="10"></circle>
    <path d="M12 18a6 6 0 0 0 0-12v12z"></path>
  </symbol>
  <symbol id="file-text" viewBox="0 0 24 24">
    <path d="M6 22a2 2 0 0 1-2-2V4a2 2 0 0 1 2-2h8a2.4 2.4 0 0 1 1.704.706l3.588 3.588A2.4 2.4 0 0 1 20 8v12a2 2 0 0 1-2 2z"></path>
    <path d="M14 2v5a1 1 0 0 0 1 1h5"></path>
    <path d="M10 9H8"></path>
    <path d="M16 13H8"></path>
    <path d="M16 17H8"></path>
  </symbol>
  <symbol id="landmark" viewBox="0 0 24 24">
    <path d="M10 18v-7"></path>
    <path d="M11.12 2.198a2 2 0 0 1 1.76.006l7.866 3.847c.476.233.31.949-.22.949H3.474c-.53 0-.695-.716-.22-.949z"></path>
    <path d="M14 18v-7"></path>
    <path d="M18 18v-7"></path>
    <path d="M3 22h18"></path>
    <path d="M6 18v-7"></path>
  </symbol>
  <symbol id="wallet" viewBox="0 0 24 24">
    <path d="M19 7V4a1 1 0 0 0-1-1H5a2 2 0 0 0 0 4h15a1 1 0 0 1 1 1v4h-3a2 2 0 0 0 0 4h3a1 1 0 0 0 1-1v-2a1 1 0 0 0-1-1"></path>
    <path d="M3 5v14a2 2 0 0 0 2 2h15a1 1 0 0 0 1-1v-4"></path>
  </symbol>
  <symbol id="check-circle-2" viewBox="0 0 24 24">
    <circle cx="12" cy="12" r="10"></circle>
    <path d="m9 12 2 2 4-4"></path>
  </symbol>
  <symbol id="circle-alert" viewBox="0 0 24 24">
    <circle cx="12" cy="12" r="10"></circle>
    <line x1="12" x2="12" y1="8" y2="12"></line>
    <line x1="12" x2="12.01" y1="16" y2="16"></line>
  </symbol>
  <symbol id="alarm-clock" viewBox="0 0 24 24">
    <circle cx="12" cy="13" r="8"></circle>
    <path d="M12 9v4l2 2"></path>
    <path d="M5 3 2 6"></path>
    <path d="m22 6-3-3"></path>
    <path d="M6.38 18.7 4 21"></path>
    <path d="M17.64 18.67 20 21"></path>
  </symbol>
  <symbol id="clock-3" viewBox="0 0 24 24">
    <circle cx="12" cy="12" r="10"></circle>
    <path d="M12 6v6h4"></path>
  </symbol>
  <symbol id="calendar-clock" viewBox="0 0 24 24">
    <path d="M16 14v2.2l1.6 1"></path>
    <path d="M16 2v4"></path>
    <path d="M21 7.5V6a2 2 0 0 0-2-2H5a2 2 0 0 0-2 2v14a2 2 0 0 0 2 2h3.5"></path>
    <path d="M3 10h5"></path>
    <path d="M8 2v4"></path>
    <circle cx="16" cy="16" r="6"></circle>
  </symbol>
  <symbol id="archive" viewBox="0 0 24 24">
    <rect width="20" height="5" x="2" y="3" rx="1"></rect>
    <path d="M4 8v11a2 2 0 0 0 2 2h12a2 2 0 0 0 2-2V8"></path>
    <path d="M10 12h4"></path>
  </symbol>
  <symbol id="user-round-x" viewBox="0 0 24 24">
    <path d="M2 21a8 8 0 0 1 11.873-7"></path>
    <circle cx="10" cy="8" r="5"></circle>
    <path d="m17 17 5 5"></path>
    <path d="m22 17-5 5"></path>
  </symbol>
  <symbol id="badge-alert" viewBox="0 0 24 24">
    <path d="M3.85 8.62a4 4 0 0 1 4.78-4.77 4 4 0 0 1 6.74 0 4 4 0 0 1 4.78 4.78 4 4 0 0 1 0 6.74 4 4 0 0 1-4.77 4.78 4 4 0 0 1-6.75 0 4 4 0 0 1-4.78-4.77 4 4 0 0 1 0-6.76Z"></path>
    <line x1="12" x2="12" y1="8" y2="12"></line>
    <line x1="12" x2="12.01" y1="16" y2="16"></line>
  </symbol>
  <symbol id="calendar-x" viewBox="0 0 24 24">
    <path d="M8 2v4"></path>
    <path d="M16 2v4"></path>
    <rect width="18" height="18" x="3" y="4" rx="2"></rect>
    <path d="M3 10h18"></path>
    <path d="m14 14-4 4"></path>
    <path d="m10 14 4 4"></path>
  </symbol>
  <symbol id="badge-dollar-sign" viewBox="0 0 24 24">
    <path d="M3.85 8.62a4 4 0 0 1 4.78-4.77 4 4 0 0 1 6.74 0 4 4 0 0 1 4.78 4.78 4 4 0 0 1 0 6.74 4 4 0 0 1-4.77 4.78 4 4 0 0 1-6.75 0 4 4 0 0 1-4.78-4.77 4 4 0 0 1 0-6.76Z"></path>
    <path d="M16 8h-6a2 2 0 1 0 0 4h4a2 2 0 1 1 0 4H8"></path>
    <path d="M12 18V6"></path>
  </symbol>
  <symbol id="shield-alert" viewBox="0 0 24 24">
    <path d="M20 13c0 5-3.5 7.5-7.66 8.95a1 1 0 0 1-.67-.01C7.5 20.5 4 18 4 13V6a1 1 0 0 1 1-1c2 0 4.5-1.2 6.24-2.72a1.17 1.17 0 0 1 1.52 0C14.51 3.81 17 5 19 5a1 1 0 0 1 1 1z"></path>
    <path d="M12 8v4"></path>
    <path d="M12 16h.01"></path>
  </symbol>
  <symbol id="clipboard-x" viewBox="0 0 24 24">
    <rect width="8" height="4" x="8" y="2" rx="1" ry="1"></rect>
    <path d="M16 4h2a2 2 0 0 1 2 2v14a2 2 0 0 1-2 2H6a2 2 0 0 1-2-2V6a2 2 0 0 1 2-2h2"></path>
    <path d="m15 11-6 6"></path>
    <path d="m9 11 6 6"></path>
  </symbol>
  <symbol id="info" viewBox="0 0 24 24">
    <circle cx="12" cy="12" r="10"></circle>
    <path d="M12 16v-4"></path>
    <path d="M12 8h.01"></path>
  </symbol>
  <symbol id="triangle-alert" viewBox="0 0 24 24">
    <path d="m21.73 18-8-14a2 2 0 0 0-3.48 0l-8 14A2 2 0 0 0 4 21h16a2 2 0 0 0 1.73-3"></path>
    <path d="M12 9v4"></path>
    <path d="M12 17h.01"></path>
  </symbol>
  <symbol id="circle-check" viewBox="0 0 24 24">
    <circle cx="12" cy="12" r="10"></circle>
    <path d="m9 12 2 2 4-4"></path>
  </symbol>
</svg>
